<mxfile host="65bd71144e">
    <diagram id="nOSDPQG5NeyGX4xvr7Oo" name="Page-1">
        <mxGraphModel dx="662" dy="480" grid="1" gridSize="10" guides="1" tooltips="1" connect="1" arrows="1" fold="1" page="1" pageScale="1" pageWidth="850" pageHeight="1100" math="0" shadow="0">
            <root>
                <mxCell id="0"/>
                <mxCell id="1" parent="0"/>
                <mxCell id="2" value="（　１　）" style="rounded=1;whiteSpace=wrap;html=1;arcSize=50;flipV=0;flipH=1;" vertex="1" parent="1">
                    <mxGeometry x="260" y="40" width="120" height="40" as="geometry"/>
                </mxCell>
                <mxCell id="3" value="（　２　）" style="shape=hexagon;perimeter=hexagonPerimeter2;whiteSpace=wrap;html=1;fixedSize=1;flipV=0;flipH=1;" vertex="1" parent="1">
                    <mxGeometry x="240" y="100" width="160" height="60" as="geometry"/>
                </mxCell>
                <mxCell id="4" value="（　３　）" style="shape=parallelogram;perimeter=parallelogramPerimeter;whiteSpace=wrap;html=1;fixedSize=1;flipV=0;flipH=1;" vertex="1" parent="1">
                    <mxGeometry x="240" y="180" width="160" height="60" as="geometry"/>
                </mxCell>
                <mxCell id="5" value="（　４　）" style="shape=parallelogram;perimeter=parallelogramPerimeter;whiteSpace=wrap;html=1;fixedSize=1;flipV=0;flipH=1;" vertex="1" parent="1">
                    <mxGeometry x="240" y="260" width="160" height="60" as="geometry"/>
                </mxCell>
                <mxCell id="6" value="（　５　）" style="shape=parallelogram;perimeter=parallelogramPerimeter;whiteSpace=wrap;html=1;fixedSize=1;flipV=0;flipH=1;" vertex="1" parent="1">
                    <mxGeometry x="240" y="340" width="160" height="60" as="geometry"/>
                </mxCell>
                <mxCell id="7" value="（　６　）" style="rounded=1;whiteSpace=wrap;html=1;arcSize=50;flipV=0;flipH=1;" vertex="1" parent="1">
                    <mxGeometry x="260" y="420" width="120" height="40" as="geometry"/>
                </mxCell>
                <mxCell id="8" value="" style="endArrow=none;html=1;entryX=0.5;entryY=1;entryDx=0;entryDy=0;exitX=0.5;exitY=0;exitDx=0;exitDy=0;" edge="1" parent="1" source="3" target="2">
                    <mxGeometry width="50" height="50" relative="1" as="geometry">
                        <mxPoint x="201" y="320" as="sourcePoint"/>
                        <mxPoint x="151" y="270" as="targetPoint"/>
                    </mxGeometry>
                </mxCell>
                <mxCell id="9" value="" style="endArrow=none;html=1;entryX=0.5;entryY=1;entryDx=0;entryDy=0;exitX=0.5;exitY=0;exitDx=0;exitDy=0;" edge="1" parent="1" source="4" target="3">
                    <mxGeometry width="50" height="50" relative="1" as="geometry">
                        <mxPoint x="201" y="320" as="sourcePoint"/>
                        <mxPoint x="151" y="270" as="targetPoint"/>
                    </mxGeometry>
                </mxCell>
                <mxCell id="10" value="" style="endArrow=none;html=1;entryX=0.5;entryY=1;entryDx=0;entryDy=0;exitX=0.5;exitY=0;exitDx=0;exitDy=0;" edge="1" parent="1" source="6" target="5">
                    <mxGeometry width="50" height="50" relative="1" as="geometry">
                        <mxPoint x="201" y="320" as="sourcePoint"/>
                        <mxPoint x="151" y="270" as="targetPoint"/>
                    </mxGeometry>
                </mxCell>
                <mxCell id="11" value="" style="endArrow=none;html=1;entryX=0.5;entryY=1;entryDx=0;entryDy=0;exitX=0.5;exitY=0;exitDx=0;exitDy=0;" edge="1" parent="1" source="5" target="4">
                    <mxGeometry width="50" height="50" relative="1" as="geometry">
                        <mxPoint x="201" y="320" as="sourcePoint"/>
                        <mxPoint x="151" y="270" as="targetPoint"/>
                    </mxGeometry>
                </mxCell>
                <mxCell id="12" value="" style="endArrow=none;html=1;entryX=0.5;entryY=1;entryDx=0;entryDy=0;exitX=0.5;exitY=0;exitDx=0;exitDy=0;" edge="1" parent="1" source="7" target="6">
                    <mxGeometry width="50" height="50" relative="1" as="geometry">
                        <mxPoint x="201" y="320" as="sourcePoint"/>
                        <mxPoint x="151" y="270" as="targetPoint"/>
                    </mxGeometry>
                </mxCell>
            </root>
        </mxGraphModel>
    </diagram>
</mxfile>